<?xml version="1.0" standalone="no"?><!DOCTYPE svg PUBLIC "-//W3C//DTD SVG 1.1//EN" "http://www.w3.org/Graphics/SVG/1.1/DTD/svg11.dtd"><svg class="icon" width="200px" height="200.00px" viewBox="0 0 1024 1024" version="1.1" xmlns="http://www.w3.org/2000/svg"><path d="M377.74 600.43l1.25 0.06a28.05 28.05 0 0 0 3.2 0.16 32.84 32.84 0 0 0 15.24-61.93 32.47 32.47 0 0 0-12.3-3.63 32.11 32.11 0 0 0-7.75 0.19h-1c-84.44-7.72-150.54-80.17-150.55-165.06 0-91.43 74.38-165.81 165.79-165.81 8 0 24 1.27 24.13 1.28h0.68a32.66 32.66 0 0 0-1-65.31c-0.73 0-1.48 0-2.24 0.09-7.56-0.7-14.59-1-21.47-1C264.47 139.51 161 243 161 370.22a230.14 230.14 0 0 0 30.7 114.92 232.83 232.83 0 0 0 70.85 76.12 329.93 329.93 0 0 0-197.18 257c-0.59 4-1.1 7.62-1.27 9.5-0.14 1.6-0.17 4.17-0.17 4.17a33.31 33.31 0 0 0 66.62 0.38c0-3-0.56-4.51-0.54-7.19C148.58 701.37 252.6 607 377.74 600.43z" fill="#cdcdcd" /><path d="M959.75 848.38a33.73 33.73 0 0 0-1.13-8.46 329.89 329.89 0 0 0-197.67-259.41 233 233 0 0 0 70.81-76.14 230.2 230.2 0 0 0 30.72-114.89c0-127.21-103.51-230.71-230.72-230.71S401.09 262.26 401.09 389.48a230.26 230.26 0 0 0 30.72 114.92 232.9 232.9 0 0 0 70.85 76.15 329.87 329.87 0 0 0-197.21 257c-0.5 4.17-0.93 7.06-1.17 9.33s-0.24 4.35-0.24 4.35a33.31 33.31 0 0 0 66.62 0.39c-0.12-3.24-0.79-2.69-0.54-7.2 18.58-123.8 122.62-218.2 247.76-224.73 5.4 0.32 9.82 0.46 13.88 0.46s8.55-0.15 14-0.46c125.8 6.55 230.07 101.64 248 226.23l0.07 0.46v1.67l0.32 3.42v0.05a33 33 0 0 0 66 0.39v-0.34z m-328-624.66c91.44 0 165.83 74.37 165.83 165.79 0 84.8-66 157.23-150.33 165.07-10.3-0.47-20.76-0.46-30.88 0-84.4-7.77-150.45-80.2-150.45-165.07-0.03-91.41 74.36-165.79 165.8-165.79z" fill="#cdcdcd" /></svg>