<?xml version="1.0" standalone="no"?><!DOCTYPE svg PUBLIC "-//W3C//DTD SVG 1.1//EN" "http://www.w3.org/Graphics/SVG/1.1/DTD/svg11.dtd"><svg class="icon" width="200px" height="200.00px" viewBox="0 0 1024 1024" version="1.1" xmlns="http://www.w3.org/2000/svg"><path d="M1024 1024 234.666667 1024 234.666667 981.333333 981.333333 981.333333 981.333333 234.666667 1024 234.666667Z" fill="#cdcdcd" /><path d="M938.666667 938.666667 106.666667 938.666667 106.666667 896 896 896 896 106.666667 938.666667 106.666667Z" fill="#cdcdcd" /><path d="M810.666667 42.666667l0 768L42.666667 810.666667 42.666667 42.666667 810.666667 42.666667M853.333333 0 0 0l0 853.333333 853.333333 0L853.333333 0 853.333333 0z" fill="#cdcdcd" /><path d="M210.282667 672.32l-36.586667-21.952 128-213.333333c3.562667-5.909333 9.770667-9.770667 16.64-10.282667 6.976-0.597333 13.632 2.304 18.026667 7.616l88.384 106.048 154.816-232.234667c4.437333-6.656 12.245333-10.24 20.181333-9.365333 7.957333 0.917333 14.72 6.208 17.536 13.717333l128 341.333333-39.957333 14.976-113.365333-302.336-147.562667 221.333333c-3.733333 5.610667-9.898667 9.109333-16.618667 9.472-6.698667 0.277333-13.226667-2.474667-17.514667-7.637333l-87.445333-104.917333L210.282667 672.32z" fill="#cdcdcd" /><path d="M256 298.666667c-47.061333 0-85.333333-38.272-85.333333-85.333333s38.272-85.333333 85.333333-85.333333 85.333333 38.272 85.333333 85.333333S303.061333 298.666667 256 298.666667zM256 170.666667c-23.530667 0-42.666667 19.136-42.666667 42.666667s19.136 42.666667 42.666667 42.666667 42.666667-19.136 42.666667-42.666667S279.530667 170.666667 256 170.666667z" fill="#cdcdcd" /><path d="M0 640l853.333333 0 0 42.666667-853.333333 0 0-42.666667Z" fill="#cdcdcd" /></svg>