<?xml version="1.0" standalone="no"?><!DOCTYPE svg PUBLIC "-//W3C//DTD SVG 1.1//EN" "http://www.w3.org/Graphics/SVG/1.1/DTD/svg11.dtd"><svg class="icon" width="200px" height="200.00px" viewBox="0 0 1024 1024" version="1.1" xmlns="http://www.w3.org/2000/svg"><path d="M960 179.712c0-36.352-32.256-68.608-91.136-90.624-51.712-19.456-120.32-30.208-192.512-30.208-72.192 0-140.8 10.752-192.512 30.208C424.448 111.104 392.192 143.36 392.192 179.712V353.28c-22.528-2.048-46.08-3.584-70.144-3.584-72.192 0-140.8 10.752-192.512 30.208C70.656 402.432 38.4 434.688 38.4 471.04V844.288c0 36.352 32.256 68.608 91.136 90.624 51.712 19.456 120.32 30.208 192.512 30.208 72.192 0 140.8-10.752 192.512-30.208 51.2-19.456 82.432-46.08 89.6-76.8 23.552 2.56 47.616 3.584 71.68 3.584 72.192 0 140.8-10.752 192.512-30.208 58.88-22.016 91.136-54.272 91.136-90.624v-1.536-1.536l0.512-558.08z m-45.568 422.4c0 31.232-93.184 75.776-238.592 75.776-24.064 0-47.616-1.024-70.144-3.584v-93.184c23.04 2.56 46.08 3.584 70.144 3.584 72.192 0 140.8-10.752 192.512-30.208 17.92-6.656 33.28-14.336 46.08-22.528v70.144z m-353.792-1.024c0 31.232-93.184 75.776-238.592 75.776-145.408 0-238.592-45.056-238.592-75.776v-61.952c12.8 8.192 28.16 15.872 46.08 22.528 51.712 19.456 120.32 30.208 192.512 30.208 72.192 0 140.8-10.752 192.512-30.208 17.92-6.656 33.28-14.336 46.08-22.528v61.952z m-477.184 68.096c12.8 8.192 28.16 15.872 46.08 22.528 51.712 19.456 120.32 30.208 192.512 30.208 72.192 0 140.8-10.752 192.512-30.208 17.92-6.656 33.28-14.336 46.08-22.528v53.76c0 31.232-93.184 75.776-238.592 75.776-145.408 0-238.592-45.056-238.592-75.776v-53.76z m830.976-205.312c0 31.232-93.184 75.776-238.592 75.776-24.064 0-47.616-1.024-70.144-3.584V471.04c0-9.728-2.56-19.456-7.168-28.672 25.088 2.56 50.688 4.096 77.312 4.096 72.192 0 140.8-10.752 192.512-30.208 17.92-6.656 33.28-14.336 46.08-22.528v70.144z m0-138.752c0 31.232-93.184 75.776-238.592 75.776-145.408 0-238.592-45.056-238.592-75.776V247.808c12.8 8.192 28.16 15.872 46.08 22.528 51.712 19.456 120.32 30.208 192.512 30.208s140.8-10.752 192.512-30.208c17.92-6.656 33.28-14.336 46.08-22.528v77.312zM675.84 103.424c145.408 0 238.592 45.056 238.592 75.776S821.76 255.488 675.84 255.488c-145.408 0-238.592-45.056-238.592-75.776s93.184-76.288 238.592-76.288zM322.048 394.752c32.256 0 61.44 2.048 88.064 6.144 1.024 0 1.536 0.512 2.56 0.512 92.16 13.312 147.968 45.568 147.968 69.632 0 31.232-93.184 75.776-238.592 75.776-145.408 0-238.592-45.056-238.592-75.776s92.672-76.288 238.592-76.288z m0 525.824c-145.408 0-238.592-45.056-238.592-75.776v-1.536V791.04c12.8 8.192 28.16 15.872 46.08 22.528 51.712 19.456 120.32 30.208 192.512 30.208 72.192 0 140.8-10.752 192.512-30.208 17.92-6.656 33.28-14.336 46.08-22.528V844.8c0 30.72-93.184 75.776-238.592 75.776z m353.792-103.936c-24.064 0-47.616-1.024-70.144-3.584v-93.184c23.04 2.56 46.08 3.584 70.144 3.584 72.192 0 140.8-10.752 192.512-30.208 17.92-6.656 33.28-14.336 46.08-22.528v70.656c0 30.208-92.672 75.264-238.592 75.264z" fill="#cdcdcd" /></svg>